Coordinates
version=1
nRows=7
nColumns=63
inDegrees=yes

Units are S.I. units (second, meters, Newtons, ...)
If the header above contains a line with 'inDegrees', this indicates whether rotational values are in degrees (yes) or radians (no).

endheader
time	pelvis_tilt	pelvis_list	pelvis_rotation	pelvis_tx	pelvis_ty	pelvis_tz	hip_flexion_r	hip_adduction_r	hip_rotation_r	knee_angle_r	knee_angle_r_beta	ankle_angle_r	subtalar_angle_r	mtp_angle_r	hip_flexion_l	hip_adduction_l	hip_rotation_l	knee_angle_l	knee_angle_l_beta	ankle_angle_l	subtalar_angle_l	mtp_angle_l	L5_S1_Flex_Ext	L5_S1_Lat_Bending	L5_S1_axial_rotation	L4_L5_Flex_Ext	L4_L5_Lat_Bending	L4_L5_axial_rotation	L3_L4_Flex_Ext	L3_L4_Lat_Bending	L3_L4_axial_rotation	L2_L3_Flex_Ext	L2_L3_Lat_Bending	L2_L3_axial_rotation	L1_L2_Flex_Ext	L1_L2_Lat_Bending	L1_L2_axial_rotation	L1_T12_Flex_Ext	L1_T12_Lat_Bending	L1_T12_axial_rotation	Abs_r3	Abs_r2	Abs_r1	Abs_t1	Abs_t2	neck_flexion	neck_bending	neck_rotation	arm_flex_r	arm_add_r	arm_rot_r	elbow_flex_r	pro_sup_r	wrist_flex_r	wrist_dev_r	arm_flex_l	arm_add_l	arm_rot_l	elbow_flex_l	pro_sup_l	wrist_flex_l	wrist_dev_l
      7.77500000	    -60.51421158	     -2.05106123	     -1.58200253	     -0.26937368	      1.09664531	     -0.02705547	    102.03073543	     -7.22606997	     -5.89280665	     93.12138461	      1.62527477	     18.50648037	      5.71461840	      0.00000000	    115.77737318	     -8.14830371	     -1.46346196	     72.83997483	      1.27129739	     11.16496272	      0.01256920	      0.00000000	     -0.09202685	      0.53096287	      0.53839909	     -0.17090307	      0.70618062	      0.57204904	     -0.15119092	      1.29098313	      0.57204904	     -0.10517749	      1.29098313	      0.47109921	     -0.08545613	      1.08273949	      0.43744926	     -0.05258414	      0.82246149	      0.40379932	     -0.65733860	      6.00635819	      2.99441423	      0.00000000	      0.00000000	      0.00000000	      0.00000000	      0.00000000	     63.65598941	    -20.22609995	     18.57276364	     54.29872501	     49.97900126	      0.00000000	      4.99999994	     60.83355522	    -17.19318268	     13.25306712	     53.43882436	     52.37243439	      0.00000000	      4.99999994
      7.78300000	    -60.51602691	     -2.06200088	     -1.57503791	     -0.26935718	      1.09670656	     -0.02706579	    103.13220418	     -7.34736729	     -5.43290521	     95.29321604	      1.66318037	     18.99402305	      5.85436564	      0.00000000	    114.19460226	     -7.88428437	     -1.31007477	     70.21886799	      1.22555044	     10.98035971	      0.67440692	      0.00000000	     -0.09282797	      0.54058248	      0.52496582	     -0.17239083	      0.71897470	      0.55777618	     -0.15250708	      1.31437224	      0.55777618	     -0.10609309	      1.31437224	      0.45934509	     -0.08620006	      1.10235580	      0.42653473	     -0.05304190	      0.83736226	      0.39372436	     -0.66306094	      6.11517714	      2.91970238	      0.00000000	      0.00000000	      0.00000000	      0.00000000	      0.00000000	     63.79734583	    -20.15747853	     18.70778585	     54.13262741	     50.00033867	      0.00000000	      4.99999995	     60.73533805	    -17.18368121	     13.02876770	     53.44587495	     52.36447371	      0.00000000	      4.99999995
      7.79200000	    -60.52326286	     -2.06315060	     -1.59313761	     -0.26920974	      1.09673673	     -0.02709446	    104.26157190	     -7.46466880	     -5.01670518	     97.37662841	      1.69954278	     19.53114661	      6.09680291	      0.00000000	    112.60476903	     -7.62323680	     -1.07979214	     67.66421717	      1.18096338	     10.83802736	      1.35516264	      0.00000000	     -0.09316404	      0.55210911	      0.50509414	     -0.17301494	      0.73430512	      0.53666252	     -0.15305921	      1.34239810	      0.53666252	     -0.10647718	      1.34239810	      0.44195737	     -0.08651213	      1.12586090	      0.41038899	     -0.05323393	      0.85521702	      0.37882060	     -0.66546144	      6.24556870	      2.80918206	      0.00000000	      0.00000000	      0.00000000	      0.00000000	      0.00000000	     63.96719128	    -20.02905871	     18.96408981	     53.96427888	     50.03293514	      0.00000000	      4.99999995	     60.58897618	    -17.25342390	     12.76632615	     53.47841185	     52.35270777	      0.00000000	      4.99999995
      7.80000000	    -60.52477946	     -2.05090145	     -1.61368176	     -0.26886587	      1.09669249	     -0.02714661	    105.42051608	     -7.58537940	     -4.60377812	     99.38649106	      1.73462150	     20.14143887	      6.46817744	      0.00000000	    111.02611660	     -7.38343094	     -0.82737369	     65.24436695	      1.13872902	     10.71188171	      2.09978496	      0.00000000	     -0.09357734	      0.56452570	      0.47441455	     -0.17378247	      0.75081918	      0.50406546	     -0.15373821	      1.37258779	      0.50406546	     -0.10694954	      1.37258779	      0.41511273	     -0.08689591	      1.15118081	      0.38546182	     -0.05347009	      0.87445031	      0.35581091	     -0.66841356	      6.38602764	      2.63855139	      0.00000000	      0.00000000	      0.00000000	      0.00000000	      0.00000000	     64.16879643	    -19.83471002	     19.35003661	     53.74994983	     50.07877531	      0.00000000	      4.99999995	     60.35072399	    -17.39113396	     12.47745446	     53.59875793	     52.33932258	      0.00000000	      4.99999995
      7.80800000	    -60.55358740	     -2.15715656	     -2.08127066	     -0.26841300	      1.09669253	     -0.02658253	    106.53418869	     -7.25881303	     -4.49582191	    101.09922664	      1.76451438	     20.65073291	      6.55759533	      0.00000000	    109.61799063	     -7.52761212	     -0.24059012	     63.12169090	      1.10168134	     10.28952775	      2.40385912	      0.00000000	     -0.09493006	      0.59270827	      0.53161078	     -0.17629461	      0.78830200	      0.56483646	     -0.15596059	      1.44111089	      0.56483646	     -0.10849556	      1.44111089	      0.46515943	     -0.08815205	      1.20865071	      0.43193376	     -0.05424303	      0.91810511	      0.39870809	     -0.67807590	      6.70483451	      2.95665969	      0.00000000	      0.00000000	      0.00000000	      0.00000000	      0.00000000	     64.30039493	    -19.70815568	     19.57119759	     53.63712399	     50.10241856	      0.00000000	      4.99999995	     60.11015366	    -17.51832633	     12.33656132	     53.68905359	     52.32966273	      0.00000000	      4.99999995
      7.81700000	    -60.53491954	     -2.07911808	     -1.92126828	     -0.26775333	      1.09642513	     -0.02689072	    107.76831641	     -7.58581654	     -4.08389806	    102.98437210	      1.79741637	     21.32520161	      7.15004982	      0.00000000	    108.06590503	     -7.17401692	     -0.08926714	     61.03155641	      1.06520161	     10.14647914	      3.23220380	      0.00000000	     -0.09449192	      0.59980027	      0.43822093	     -0.17548095	      0.79773437	      0.46560974	     -0.15524078	      1.45835439	      0.46560974	     -0.10799482	      1.45835439	      0.38344331	     -0.08774520	      1.22311272	      0.35605451	     -0.05399268	      0.92909063	      0.32866570	     -0.67494634	      6.78506066	      2.43725335	      0.00000000	      0.00000000	      0.00000000	      0.00000000	      0.00000000	     64.58756184	    -19.39601319	     20.34053544	     53.32570278	     50.18536700	      0.00000000	      4.99999996	     59.69250639	    -17.85563100	     11.89092054	     53.96134608	     52.29919504	      0.00000000	      4.99999996
      7.82500000	    -60.54095471	     -2.17131035	     -2.43602398	     -0.26701642	      1.09625505	     -0.02627548	    108.90553683	     -7.22819061	     -4.12705458	    104.47407533	      1.82341660	     21.78139147	      7.24933524	      0.00000000	    106.73309272	     -7.43420208	      0.43707092	     59.29394024	      1.03487448	      9.63831684	      3.47905423	      0.00000000	     -0.09560882	      0.62864129	      0.49631310	     -0.17755515	      0.83609292	      0.52733267	     -0.15707574	      1.52847843	      0.52733267	     -0.10927132	      1.52847843	      0.43427396	     -0.08878235	      1.28192532	      0.40325440	     -0.05463088	      0.97376536	      0.37223483	     -0.68292427	      7.11131600	      2.76034458	      0.00000000	      0.00000000	      0.00000000	      0.00000000	      0.00000000	     64.69234314	    -19.22131935	     20.60954810	     53.24714549	     50.21266761	      0.00000000	      4.99999996	     59.35925835	    -18.02269991	     11.76983837	     54.05622078	     52.29014059	      0.00000000	      4.99999996
